<?xml version="1.0" encoding="UTF-8" standalone="no"?>
<svg
   xmlns:dc="http://purl.org/dc/elements/1.1/"
   xmlns:cc="http://creativecommons.org/ns#"
   xmlns:rdf="http://www.w3.org/1999/02/22-rdf-syntax-ns#"
   xmlns:svg="http://www.w3.org/2000/svg"
   xmlns="http://www.w3.org/2000/svg"
   xmlns:sodipodi="http://sodipodi.sourceforge.net/DTD/sodipodi-0.dtd"
   xmlns:inkscape="http://www.inkscape.org/namespaces/inkscape"
   version="1.1"
   id="Layer_1"
   x="0px"
   y="0px"
   width="100px"
   height="100px"
   viewBox="0 0 100 100"
   enable-background="new 0 0 100 100"
   xml:space="preserve"
   inkscape:version="0.48.3.1 r9886"
   sodipodi:docname="doorbell.svg"><metadata
   id="metadata11"><rdf:RDF><cc:Work
       rdf:about=""><dc:format>image/svg+xml</dc:format><dc:type
         rdf:resource="http://purl.org/dc/dcmitype/StillImage" /></cc:Work></rdf:RDF></metadata><defs
   id="defs9" /><sodipodi:namedview
   pagecolor="#ffffff"
   bordercolor="#666666"
   borderopacity="1"
   objecttolerance="10"
   gridtolerance="10"
   guidetolerance="10"
   inkscape:pageopacity="0"
   inkscape:pageshadow="2"
   inkscape:window-width="640"
   inkscape:window-height="480"
   id="namedview7"
   showgrid="false"
   inkscape:zoom="2.36"
   inkscape:cx="50"
   inkscape:cy="50"
   inkscape:window-x="0"
   inkscape:window-y="27"
   inkscape:window-maximized="0"
   inkscape:current-layer="Layer_1" />
<path
   d="M85.366,71.43c-1.92-1.917-3.064-4.473-3.211-7.18l-1.604-28.857c0-12.091-10.382-22.061-23.835-23.636  c0.09-0.594-0.043-1.308-0.043-2.079c0-2.03-1.646-3.673-3.674-3.673c-2.03,0-3.674,1.643-3.674,3.673  c0,0.771-0.131,1.485-0.043,2.079C35.83,13.331,25.448,23.301,25.448,35.392L23.845,64.25c-0.15,2.707-1.293,5.263-3.211,7.18  l-8.043,8.045v3.674h80.818v-3.674L85.366,71.43z"
   id="path3"
   style="fill:#ffbf00;fill-opacity:1" />
<path
   d="M53,96.004c5.072,0,9.184-4.109,9.184-9.184H43.816C43.816,91.895,47.928,96.004,53,96.004"
   id="path5"
   style="fill:#ffbf00;fill-opacity:1" />
</svg>