<svg xmlns="http://www.w3.org/2000/svg" xmlns:xlink="http://www.w3.org/1999/xlink" version="1.1" id="Layer_1" x="0px" y="0px" width="100px" height="100px" viewBox="0 0 100 100" enable-background="new 0 0 100 100" xml:space="preserve">
<path d="M85.366,71.43c-1.92-1.917-3.064-4.473-3.211-7.18l-1.604-28.857c0-12.091-10.382-22.061-23.835-23.636  c0.09-0.594-0.043-1.308-0.043-2.079c0-2.03-1.646-3.673-3.674-3.673c-2.03,0-3.674,1.643-3.674,3.673  c0,0.771-0.131,1.485-0.043,2.079C35.83,13.331,25.448,23.301,25.448,35.392L23.845,64.25c-0.15,2.707-1.293,5.263-3.211,7.18  l-8.043,8.045v3.674h80.818v-3.674L85.366,71.43z"/>
<path d="M53,96.004c5.072,0,9.184-4.109,9.184-9.184H43.816C43.816,91.895,47.928,96.004,53,96.004"/>
</svg>